<?xml version="1.0" encoding="UTF-8"?>
<svg xmlns="http://www.w3.org/2000/svg" xmlns:xlink="http://www.w3.org/1999/xlink" width="500pt" height="500pt" viewBox="0 0 500 500" version="1.1">
<g id="surface1">
<path style=" stroke:none;fill-rule:nonzero;fill:#000;fill-opacity:1;" d="M 248.015625 0 C 213.292969 0 180.507813 12.828125 154.699219 35.652344 C 125.945313 61.460938 109.128906 99.207031 109.128906 138.890625 C 109.128906 149.816406 118.039063 158.730469 128.96875 158.730469 L 148.808594 158.730469 C 159.738281 158.730469 168.652344 149.816406 168.652344 138.890625 C 168.652344 116.0625 178.457031 95.253906 195.3125 79.363281 C 210.195313 66.460938 228.175781 59.523438 248.015625 59.523438 C 251 59.523438 254.023438 59.445313 257.007813 60.453125 C 293.703125 64.40625 322.5 94.167969 326.449219 129.898438 C 330.402344 162.644531 313.351563 193.375 284.597656 209.261719 C 242.9375 231.082031 217.324219 272.738281 217.324219 318.390625 L 217.324219 376.984375 C 217.324219 387.914063 226.238281 396.824219 237.164063 396.824219 L 257.007813 396.824219 C 267.933594 396.824219 276.847656 387.914063 276.847656 376.984375 L 276.847656 318.390625 C 276.847656 295.566406 290.683594 273.863281 312.5 261.964844 C 363.109375 235.1875 391.980469 180.546875 385.042969 124.007813 C 379.078125 59.523438 327.304688 7.867188 263.828125 0.929688 C 258.867188 -0.078125 252.976563 0 248.015625 0 Z M 228.175781 436.507813 C 222.710938 436.507813 218.253906 440.925781 218.253906 446.429688 L 218.253906 486.109375 C 218.253906 491.613281 222.710938 496.03125 228.175781 496.03125 L 267.855469 496.03125 C 273.359375 496.03125 277.777344 491.613281 277.777344 486.109375 L 277.777344 446.429688 C 277.777344 440.925781 273.359375 436.507813 267.855469 436.507813 Z "/>
</g>
</svg>
