<?xml version="1.0" encoding="UTF-8"?>
<svg xmlns="http://www.w3.org/2000/svg" xmlns:xlink="http://www.w3.org/1999/xlink" width="30pt" height="30pt" viewBox="0 0 30 30" version="1.1">
<g id="surface1">
<path style=" stroke:none;fill-rule:nonzero;fill:#DCD5F2;fill-opacity:1;" d="M 15 22.5 C 7.003906 22.5 0.5 19.136719 0.5 15 C 0.5 10.863281 7.003906 7.5 15 7.5 C 22.996094 7.5 29.5 10.863281 29.5 15 C 29.5 19.136719 22.996094 22.5 15 22.5 Z "/>
<path style=" stroke:none;fill-rule:nonzero;fill:#8B75A1;fill-opacity:1;" d="M 15 8 C 22.589844 8 29 11.207031 29 15 C 29 18.792969 22.589844 22 15 22 C 7.410156 22 1 18.792969 1 15 C 1 11.207031 7.410156 8 15 8 M 15 7 C 6.714844 7 0 10.582031 0 15 C 0 19.417969 6.714844 23 15 23 C 23.285156 23 30 19.417969 30 15 C 30 10.582031 23.285156 7 15 7 Z "/>
<path style=" stroke:none;fill-rule:nonzero;fill:#36404D;fill-opacity:1;" d="M 9.417969 13 C 10.015625 13 10.53125 13.203125 10.800781 13.542969 C 10.992188 13.785156 11.046875 14.097656 10.957031 14.46875 C 10.691406 15.597656 10.214844 16 8.089844 16 L 6.578125 16 L 7.144531 13 L 9.417969 13 M 9.417969 12 L 6.3125 12 L 5 19 L 6 19 L 6.394531 17 L 8.089844 17 C 10.289063 17 11.484375 16.582031 11.929688 14.699219 C 12.316406 13.085938 11.039063 12 9.417969 12 Z "/>
<path style=" stroke:none;fill-rule:nonzero;fill:#36404D;fill-opacity:1;" d="M 22.417969 13 C 23.015625 13 23.53125 13.203125 23.800781 13.542969 C 23.992188 13.785156 24.046875 14.097656 23.957031 14.46875 C 23.691406 15.597656 23.214844 16 21.089844 16 L 19.578125 16 L 20.144531 13 L 22.417969 13 M 22.417969 12 L 19.3125 12 L 18 19 L 19 19 L 19.394531 17 L 21.089844 17 C 23.289063 17 24.484375 16.582031 24.929688 14.699219 C 25.316406 13.085938 24.039063 12 22.417969 12 Z "/>
<path style=" stroke:none;fill-rule:nonzero;fill:#36404D;fill-opacity:1;" d="M 17.652344 12.425781 C 17.324219 12.121094 16.742188 12 15.875 12 L 14.027344 12 L 14.476563 10 L 13.460938 10 L 12 17 L 13.015625 17 L 13.855469 13 L 15.875 13 C 16.785156 13 16.96875 13.15625 16.972656 13.15625 C 16.992188 13.183594 17.03125 13.347656 16.964844 13.6875 L 16.289063 17 L 17.335938 17 L 17.945313 13.878906 C 18.074219 13.210938 17.976563 12.722656 17.652344 12.425781 Z "/>
</g>
</svg>
