<?xml version="1.0" encoding="UTF-8"?>
<svg xmlns="http://www.w3.org/2000/svg" xmlns:xlink="http://www.w3.org/1999/xlink" width="96pt" height="96pt" viewBox="0 0 96 96" version="1.1">
<g id="surface1">
<path style=" stroke:none;fill-rule:nonzero;fill:#D1C4E9;fill-opacity:1;" d="M 76 14 L 20 14 C 17.800781 14 16 15.800781 16 18 L 16 30 C 16 32.199219 17.800781 34 20 34 L 76 34 C 78.199219 34 80 32.199219 80 30 L 80 18 C 80 15.800781 78.199219 14 76 14 Z "/>
<path style=" stroke:none;fill-rule:nonzero;fill:#D1C4E9;fill-opacity:1;" d="M 76 38 L 20 38 C 17.800781 38 16 39.800781 16 42 L 16 54 C 16 56.199219 17.800781 58 20 58 L 76 58 C 78.199219 58 80 56.199219 80 54 L 80 42 C 80 39.800781 78.199219 38 76 38 Z "/>
<path style=" stroke:none;fill-rule:nonzero;fill:#D1C4E9;fill-opacity:1;" d="M 76 62 L 20 62 C 17.800781 62 16 63.800781 16 66 L 16 78 C 16 80.199219 17.800781 82 20 82 L 76 82 C 78.199219 82 80 80.199219 80 78 L 80 66 C 80 63.800781 78.199219 62 76 62 Z "/>
</g>
</svg>
