<?xml version="1.0" encoding="UTF-8"?>
<svg xmlns="http://www.w3.org/2000/svg" xmlns:xlink="http://www.w3.org/1999/xlink" width="96pt" height="96pt" viewBox="0 0 96 96" version="1.1">
<g id="surface1">
<path style=" stroke:none;fill-rule:nonzero;fill:#0277BD;fill-opacity:1;" d="M 82 10 L 14 10 L 20 78 L 48 86 L 76 78 Z "/>
<path style=" stroke:none;fill-rule:nonzero;fill:#039BE5;fill-opacity:1;" d="M 48 16 L 48 79.800781 L 70.398438 73.398438 L 75.398438 16 Z "/>
<path style=" stroke:none;fill-rule:nonzero;fill:#FFFFFF;fill-opacity:1;" d="M 66.199219 26 L 48 26 L 48 34 L 57.800781 34 L 57.199219 42 L 48 42 L 48 50 L 56.800781 50 L 56.199219 59 L 48 61.800781 L 48 70.199219 L 63.800781 65 L 65.199219 42 Z "/>
<path style=" stroke:none;fill-rule:nonzero;fill:#EEEEEE;fill-opacity:1;" d="M 48 26 L 48 34 L 30.199219 34 L 29.601563 26 Z M 38.800781 42 L 39.199219 50 L 48 50 L 48 42 Z M 39.601563 54 L 31.601563 54 L 32.199219 65 L 48 70.199219 L 48 61.800781 L 39.800781 59 Z "/>
</g>
</svg>
